<svg width="30" height="30" viewBox="0 0 30 30" fill="none" xmlns="http://www.w3.org/2000/svg">
<circle cx="15" cy="15" r="15" fill="#FFC700"/>
<path d="M16.8042 18.008C16.8042 18.28 16.9402 18.44 17.2122 18.488L18.8922 18.776V20H11.2602V18.776L13.3242 18.464C13.4682 18.448 13.5722 18.4 13.6362 18.32C13.7162 18.24 13.7562 18.128 13.7562 17.984V10.688C13.5802 10.72 13.3562 10.752 13.0842 10.784C12.8122 10.816 12.5322 10.848 12.2442 10.88C11.9562 10.896 11.7002 10.904 11.4762 10.904L11.2602 9.608C11.7242 9.496 12.2122 9.336 12.7242 9.128C13.2362 8.904 13.7162 8.664 14.1642 8.408C14.6122 8.152 14.9722 7.904 15.2442 7.664L16.8042 7.928V18.008Z" fill="white"/>
</svg>
