<svg width="30" height="30" viewBox="0 0 30 30" fill="none" xmlns="http://www.w3.org/2000/svg">
<circle cx="15" cy="15" r="15" fill="#FFC700"/>
<path d="M10.898 18.008C10.898 18.28 11.034 18.44 11.306 18.488L12.986 18.776V20H5.35397V18.776L7.41797 18.464C7.56197 18.448 7.66597 18.4 7.72997 18.32C7.80997 18.24 7.84997 18.128 7.84997 17.984V10.688C7.67397 10.72 7.44997 10.752 7.17797 10.784C6.90597 10.816 6.62597 10.848 6.33797 10.88C6.04997 10.896 5.79397 10.904 5.56997 10.904L5.35397 9.608C5.81797 9.496 6.30597 9.336 6.81797 9.128C7.32997 8.904 7.80997 8.664 8.25797 8.408C8.70597 8.152 9.06597 7.904 9.33797 7.664L10.898 7.928V18.008ZM19.466 9.008C20.074 9.008 20.506 9.408 20.762 10.208C21.034 11.008 21.17 12.384 21.17 14.336C21.17 15.456 21.106 16.352 20.978 17.024C20.866 17.68 20.69 18.16 20.45 18.464C20.21 18.752 19.906 18.896 19.538 18.896C18.946 18.896 18.514 18.488 18.242 17.672C17.986 16.84 17.858 15.456 17.858 13.52C17.858 12.4 17.914 11.512 18.026 10.856C18.154 10.2 18.338 9.728 18.578 9.44C18.818 9.152 19.114 9.008 19.466 9.008ZM19.346 20.24C20.386 20.24 21.298 20.016 22.082 19.568C22.882 19.104 23.506 18.4 23.954 17.456C24.402 16.496 24.626 15.272 24.626 13.784C24.626 12.584 24.466 11.528 24.146 10.616C23.826 9.688 23.306 8.968 22.586 8.456C21.866 7.928 20.898 7.664 19.682 7.664C18.658 7.664 17.746 7.888 16.946 8.336C16.146 8.784 15.514 9.48 15.05 10.424C14.602 11.368 14.378 12.584 14.378 14.072C14.378 15.256 14.538 16.32 14.858 17.264C15.178 18.192 15.698 18.92 16.418 19.448C17.154 19.976 18.13 20.24 19.346 20.24Z" fill="white"/>
</svg>
