<svg width="30" height="30" viewBox="0 0 30 30" fill="none" xmlns="http://www.w3.org/2000/svg">
<circle cx="15" cy="15" r="15" fill="#FFC700"/>
<path d="M12.1284 18.008C12.1284 18.28 12.2644 18.44 12.5364 18.488L14.2164 18.776V20H6.58444V18.776L8.64844 18.464C8.79244 18.448 8.89644 18.4 8.96044 18.32C9.04044 18.24 9.08044 18.128 9.08044 17.984V10.688C8.90444 10.72 8.68044 10.752 8.40844 10.784C8.13644 10.816 7.85644 10.848 7.56844 10.88C7.28044 10.896 7.02444 10.904 6.80044 10.904L6.58444 9.608C7.04844 9.496 7.53644 9.336 8.04844 9.128C8.56044 8.904 9.04044 8.664 9.48844 8.408C9.93644 8.152 10.2964 7.904 10.5684 7.664L12.1284 7.928V18.008ZM21.48 18.008C21.48 18.28 21.616 18.44 21.888 18.488L23.568 18.776V20H15.936V18.776L18 18.464C18.144 18.448 18.248 18.4 18.312 18.32C18.392 18.24 18.432 18.128 18.432 17.984V10.688C18.256 10.72 18.032 10.752 17.76 10.784C17.488 10.816 17.208 10.848 16.92 10.88C16.632 10.896 16.376 10.904 16.152 10.904L15.936 9.608C16.4 9.496 16.888 9.336 17.4 9.128C17.912 8.904 18.392 8.664 18.84 8.408C19.288 8.152 19.648 7.904 19.92 7.664L21.48 7.928V18.008Z" fill="white"/>
</svg>
