<svg width="30" height="30" viewBox="0 0 30 30" fill="none" xmlns="http://www.w3.org/2000/svg">
<circle cx="15" cy="15" r="15" fill="#FFC700"/>
<path d="M11.3316 18.008C11.3316 18.28 11.4676 18.44 11.7396 18.488L13.4196 18.776V20H5.78756V18.776L7.85156 18.464C7.99556 18.448 8.09956 18.4 8.16356 18.32C8.24356 18.24 8.28356 18.128 8.28356 17.984V10.688C8.10756 10.72 7.88356 10.752 7.61156 10.784C7.33956 10.816 7.05956 10.848 6.77156 10.88C6.48356 10.896 6.22756 10.904 6.00356 10.904L5.78756 9.608C6.25156 9.496 6.73956 9.336 7.25156 9.128C7.76356 8.904 8.24356 8.664 8.69156 8.408C9.13956 8.152 9.49956 7.904 9.77156 7.664L11.3316 7.928V18.008ZM19.3871 18.056C19.6591 18.056 19.9631 18.048 20.2991 18.032C20.6511 18 20.9551 17.952 21.2111 17.888C21.4351 17.84 21.5791 17.784 21.6431 17.72C21.7071 17.656 21.7631 17.568 21.8111 17.456L22.6271 15.704L24.2351 15.896C24.2351 16.552 24.2031 17.256 24.1391 18.008C24.0751 18.744 23.9791 19.408 23.8511 20H15.2591L14.6831 18.368C15.6911 17.52 16.5471 16.776 17.2511 16.136C17.9711 15.496 18.5551 14.928 19.0031 14.432C19.4511 13.936 19.7791 13.48 19.9871 13.064C20.1951 12.648 20.2991 12.232 20.2991 11.816C20.2991 11.256 20.1311 10.808 19.7951 10.472C19.4751 10.136 19.0591 9.968 18.5471 9.968C18.0831 9.968 17.6511 10.104 17.2511 10.376C16.8511 10.632 16.5311 10.96 16.2911 11.36L15.4271 10.784C15.5231 10.176 15.7631 9.64 16.1471 9.176C16.5311 8.712 17.0271 8.352 17.6351 8.096C18.2431 7.824 18.8991 7.688 19.6031 7.688C20.7871 7.688 21.7631 8 22.5311 8.624C23.2991 9.232 23.6831 10.12 23.6831 11.288C23.6831 12.104 23.4351 12.888 22.9391 13.64C22.4431 14.392 21.6591 15.168 20.5871 15.968C19.5151 16.768 18.1151 17.656 16.3871 18.632L16.4111 18.056H19.3871Z" fill="white"/>
</svg>
