<svg width="30" height="30" viewBox="0 0 30 30" fill="none" xmlns="http://www.w3.org/2000/svg">
<circle cx="15" cy="15" r="15" fill="#FFC700"/>
<path d="M14.7113 18.056C14.9833 18.056 15.2873 18.048 15.6233 18.032C15.9753 18 16.2793 17.952 16.5353 17.888C16.7593 17.84 16.9033 17.784 16.9673 17.72C17.0313 17.656 17.0873 17.568 17.1353 17.456L17.9513 15.704L19.5593 15.896C19.5593 16.552 19.5273 17.256 19.4633 18.008C19.3993 18.744 19.3033 19.408 19.1753 20H10.5833L10.0073 18.368C11.0153 17.52 11.8713 16.776 12.5753 16.136C13.2953 15.496 13.8793 14.928 14.3273 14.432C14.7753 13.936 15.1033 13.48 15.3113 13.064C15.5193 12.648 15.6233 12.232 15.6233 11.816C15.6233 11.256 15.4553 10.808 15.1193 10.472C14.7993 10.136 14.3833 9.968 13.8713 9.968C13.4073 9.968 12.9753 10.104 12.5753 10.376C12.1753 10.632 11.8553 10.96 11.6153 11.36L10.7513 10.784C10.8473 10.176 11.0873 9.64 11.4713 9.176C11.8553 8.712 12.3513 8.352 12.9593 8.096C13.5673 7.824 14.2233 7.688 14.9273 7.688C16.1113 7.688 17.0873 8 17.8553 8.624C18.6233 9.232 19.0073 10.12 19.0073 11.288C19.0073 12.104 18.7593 12.888 18.2633 13.64C17.7673 14.392 16.9833 15.168 15.9113 15.968C14.8393 16.768 13.4393 17.656 11.7113 18.632L11.7353 18.056H14.7113Z" fill="white"/>
</svg>
