<svg width="30" height="30" viewBox="0 0 30 30" fill="none" xmlns="http://www.w3.org/2000/svg">
<circle cx="15" cy="15" r="15" fill="#FFC700"/>
<path d="M14.5606 20.24C13.3926 20.24 12.4646 20.032 11.7766 19.616C11.0886 19.184 10.6246 18.72 10.3846 18.224L11.1046 17.384C11.4246 17.672 11.8086 17.912 12.2566 18.104C12.7206 18.28 13.2006 18.368 13.6966 18.368C14.3686 18.368 14.9286 18.2 15.3766 17.864C15.8406 17.528 16.0726 17.024 16.0726 16.352C16.0726 15.792 15.9206 15.344 15.6166 15.008C15.3126 14.656 14.8726 14.44 14.2966 14.36C14.1206 14.392 13.9046 14.44 13.6486 14.504C13.3926 14.552 13.1766 14.592 13.0006 14.624L12.6646 13.28C13.1286 13.168 13.5766 13.016 14.0086 12.824C14.4406 12.632 14.7926 12.384 15.0646 12.08C15.3526 11.776 15.4966 11.408 15.4966 10.976C15.4966 10.608 15.3686 10.296 15.1126 10.04C14.8726 9.784 14.5046 9.656 14.0086 9.656C13.5286 9.656 13.0966 9.768 12.7126 9.992C12.3286 10.216 12.0166 10.48 11.7766 10.784L11.0086 10.16C11.1206 9.76 11.3526 9.368 11.7046 8.984C12.0726 8.6 12.5446 8.288 13.1206 8.048C13.6966 7.792 14.3686 7.664 15.1366 7.664C16.1926 7.664 17.0566 7.92 17.7286 8.432C18.4006 8.944 18.7366 9.624 18.7366 10.472C18.7366 10.984 18.6086 11.448 18.3526 11.864C18.0966 12.28 17.7526 12.632 17.3206 12.92C16.9046 13.192 16.4246 13.4 15.8806 13.544C16.4406 13.512 16.9926 13.592 17.5366 13.784C18.0806 13.96 18.5286 14.272 18.8806 14.72C19.2486 15.152 19.4326 15.736 19.4326 16.472C19.4326 17.256 19.2166 17.936 18.7846 18.512C18.3526 19.072 17.7686 19.504 17.0326 19.808C16.2966 20.096 15.4726 20.24 14.5606 20.24Z" fill="white"/>
</svg>
