<svg width="30" height="30" viewBox="0 0 30 30" fill="none" xmlns="http://www.w3.org/2000/svg">
<circle cx="15" cy="15" r="15" fill="#FFC700"/>
<path d="M13.6732 18.368C14.4252 18.368 15.0252 18.152 15.4732 17.72C15.9212 17.272 16.1452 16.68 16.1452 15.944C16.1452 15.256 15.9692 14.736 15.6172 14.384C15.2652 14.032 14.7772 13.856 14.1532 13.856C13.7532 13.856 13.3852 13.928 13.0492 14.072C12.7292 14.2 12.4492 14.352 12.2092 14.528L11.1532 13.832L11.6332 7.904H18.8092L18.5452 10.16H13.3132L12.9772 12.824C13.3132 12.584 13.7052 12.408 14.1532 12.296C14.6172 12.184 15.0812 12.128 15.5452 12.128C16.6812 12.128 17.6172 12.432 18.3532 13.04C19.1052 13.648 19.4812 14.568 19.4812 15.8C19.4812 16.68 19.2732 17.456 18.8572 18.128C18.4412 18.784 17.8572 19.304 17.1052 19.688C16.3692 20.056 15.4892 20.24 14.4652 20.24C13.4412 20.24 12.5772 20.04 11.8732 19.64C11.1692 19.24 10.6732 18.744 10.3852 18.152L11.1052 17.384C11.4732 17.688 11.8812 17.928 12.3292 18.104C12.7772 18.28 13.2252 18.368 13.6732 18.368Z" fill="white"/>
</svg>
