<svg width="30" height="30" viewBox="0 0 30 30" fill="none" xmlns="http://www.w3.org/2000/svg">
<circle cx="15" cy="15" r="15" fill="#FFC700"/>
<path d="M15.101 20.24C13.597 20.24 12.413 19.784 11.549 18.872C10.685 17.96 10.253 16.52 10.253 14.552C10.253 13.16 10.517 11.952 11.045 10.928C11.589 9.888 12.325 9.088 13.253 8.528C14.181 7.952 15.229 7.664 16.397 7.664C17.069 7.664 17.669 7.76 18.197 7.952C18.741 8.128 19.157 8.376 19.445 8.696L18.941 9.752C18.701 9.656 18.421 9.576 18.101 9.512C17.797 9.432 17.485 9.392 17.165 9.392C16.029 9.392 15.141 9.8 14.501 10.616C13.877 11.432 13.565 12.624 13.565 14.192V14.864C13.565 16.064 13.717 17.032 14.021 17.768C14.325 18.488 14.773 18.848 15.365 18.848C15.829 18.848 16.205 18.624 16.493 18.176C16.781 17.728 16.925 17.088 16.925 16.256C16.925 15.44 16.773 14.84 16.469 14.456C16.181 14.056 15.749 13.856 15.173 13.856C14.917 13.856 14.589 13.904 14.189 14C13.805 14.096 13.477 14.256 13.205 14.48L13.109 13.688C13.349 13.272 13.757 12.912 14.333 12.608C14.909 12.288 15.621 12.128 16.469 12.128C17.653 12.128 18.541 12.464 19.133 13.136C19.725 13.792 20.021 14.64 20.021 15.68C20.021 16.672 19.797 17.512 19.349 18.2C18.901 18.872 18.301 19.384 17.549 19.736C16.813 20.072 15.997 20.24 15.101 20.24Z" fill="white"/>
</svg>
