<svg width="30" height="30" viewBox="0 0 30 30" fill="none" xmlns="http://www.w3.org/2000/svg">
<circle cx="15" cy="15" r="15" fill="#FFC700"/>
<path d="M15.5061 9.776C15.1381 9.776 14.7701 9.792 14.4021 9.824C14.0501 9.856 13.7781 9.904 13.5861 9.968C13.4261 10 13.3141 10.048 13.2501 10.112C13.1861 10.176 13.1221 10.28 13.0581 10.424L12.2901 12.488H10.6821C10.6181 11.736 10.6021 10.96 10.6341 10.16C10.6661 9.36 10.7221 8.608 10.8021 7.904H19.1781L19.8981 9.464C19.1621 10.472 18.5141 11.496 17.9541 12.536C17.3941 13.576 16.9461 14.704 16.6101 15.92C16.2741 17.12 16.0581 18.48 15.9621 20H13.1061L12.6741 19.52C12.7381 18.272 13.0181 17.056 13.5141 15.872C14.0261 14.688 14.6741 13.576 15.4581 12.536C16.2421 11.496 17.0821 10.576 17.9781 9.776H15.5061Z" fill="white"/>
</svg>
