<svg width="30" height="30" viewBox="0 0 30 30" fill="none" xmlns="http://www.w3.org/2000/svg">
<circle cx="15" cy="15" r="15" fill="#FFC700"/>
<path d="M10.085 17.048C10.085 16.168 10.413 15.424 11.069 14.816C11.741 14.208 12.597 13.856 13.637 13.76L14.597 14.288C14.053 14.496 13.629 14.824 13.325 15.272C13.021 15.72 12.869 16.224 12.869 16.784C12.869 17.488 13.085 18.016 13.517 18.368C13.965 18.72 14.461 18.896 15.005 18.896C15.565 18.896 15.989 18.744 16.277 18.44C16.565 18.12 16.709 17.76 16.709 17.36C16.709 16.944 16.573 16.6 16.301 16.328C16.045 16.04 15.701 15.776 15.269 15.536C14.837 15.296 14.357 15.04 13.829 14.768C13.365 14.528 12.885 14.248 12.389 13.928C11.909 13.592 11.501 13.2 11.165 12.752C10.845 12.288 10.685 11.736 10.685 11.096C10.685 10.088 11.077 9.264 11.861 8.624C12.661 7.984 13.741 7.664 15.101 7.664C16.381 7.664 17.397 7.912 18.149 8.408C18.901 8.904 19.277 9.608 19.277 10.52C19.277 11.032 19.125 11.504 18.821 11.936C18.533 12.368 18.141 12.728 17.645 13.016C17.149 13.288 16.597 13.464 15.989 13.544L15.077 13.064C15.685 12.792 16.085 12.432 16.277 11.984C16.469 11.52 16.565 11.112 16.565 10.76C16.565 10.152 16.413 9.704 16.109 9.416C15.805 9.112 15.421 8.96 14.957 8.96C14.525 8.96 14.181 9.08 13.925 9.32C13.669 9.544 13.541 9.864 13.541 10.28C13.541 10.872 13.813 11.352 14.357 11.72C14.901 12.088 15.557 12.456 16.325 12.824C16.885 13.096 17.437 13.4 17.981 13.736C18.541 14.056 19.005 14.456 19.373 14.936C19.741 15.4 19.925 15.992 19.925 16.712C19.925 17.448 19.709 18.08 19.277 18.608C18.861 19.136 18.269 19.544 17.501 19.832C16.733 20.104 15.845 20.24 14.837 20.24C13.893 20.24 13.061 20.12 12.341 19.88C11.621 19.64 11.061 19.28 10.661 18.8C10.277 18.32 10.085 17.736 10.085 17.048Z" fill="white"/>
</svg>
