<svg width="30" height="30" viewBox="0 0 30 30" fill="none" xmlns="http://www.w3.org/2000/svg">
<circle cx="15" cy="15" r="15" fill="#FFC700"/>
<path d="M14.909 7.664C16.429 7.664 17.613 8.12 18.461 9.032C19.325 9.944 19.757 11.384 19.757 13.352C19.757 14.744 19.485 15.96 18.941 17C18.413 18.024 17.685 18.824 16.757 19.4C15.845 19.96 14.797 20.24 13.613 20.24C12.941 20.24 12.333 20.152 11.789 19.976C11.261 19.784 10.853 19.528 10.565 19.208L11.069 18.152C11.309 18.248 11.581 18.336 11.885 18.416C12.205 18.48 12.525 18.512 12.845 18.512C13.981 18.512 14.861 18.104 15.485 17.288C16.125 16.456 16.445 15.264 16.445 13.712V13.04C16.445 11.84 16.293 10.88 15.989 10.16C15.701 9.424 15.253 9.056 14.645 9.056C14.197 9.056 13.821 9.28 13.517 9.728C13.229 10.176 13.085 10.816 13.085 11.648C13.085 12.464 13.229 13.072 13.517 13.472C13.821 13.856 14.261 14.048 14.837 14.048C15.109 14.048 15.437 14 15.821 13.904C16.205 13.808 16.533 13.648 16.805 13.424L16.901 14.216C16.661 14.632 16.253 15 15.677 15.32C15.101 15.624 14.389 15.776 13.541 15.776C12.373 15.776 11.485 15.44 10.877 14.768C10.285 14.096 9.98897 13.248 9.98897 12.224C9.98897 11.232 10.213 10.4 10.661 9.728C11.109 9.04 11.709 8.528 12.461 8.192C13.213 7.84 14.029 7.664 14.909 7.664Z" fill="white"/>
</svg>
